<mxfile host="app.diagrams.net" agent="Mozilla/5.0 (Windows NT 10.0; Win64; x64) AppleWebKit/537.36 (KHTML, like Gecko) Chrome/127.0.0.0 Safari/537.36 Edg/127.0.0.0" version="24.7.7">
  <diagram name="第 1 页" id="_UOp_g0qZEWWEiO1d6dB">
    <mxGraphModel dx="679" dy="-450" grid="1" gridSize="10" guides="1" tooltips="1" connect="1" arrows="1" fold="1" page="1" pageScale="1" pageWidth="1169" pageHeight="827" math="0" shadow="0">
      <root>
        <mxCell id="0" />
        <mxCell id="1" parent="0" />
        <mxCell id="J0mIcsC_Z7fb-HMf94dg-1" value="&lt;font style=&quot;font-size: 18px;&quot;&gt;多嵌入特征信息&lt;/font&gt;" style="text;html=1;align=center;verticalAlign=middle;resizable=0;points=[];autosize=1;strokeColor=none;fillColor=none;" parent="1" vertex="1">
          <mxGeometry x="320" y="1130" width="150" height="40" as="geometry" />
        </mxCell>
        <mxCell id="I4VxMJiTH_GUWdxZwMfk-1" value="················" style="rounded=1;whiteSpace=wrap;html=1;" parent="1" vertex="1">
          <mxGeometry x="310" y="1180" width="170" height="350" as="geometry" />
        </mxCell>
        <mxCell id="I4VxMJiTH_GUWdxZwMfk-22" style="edgeStyle=orthogonalEdgeStyle;rounded=0;orthogonalLoop=1;jettySize=auto;html=1;entryX=0;entryY=0.5;entryDx=0;entryDy=0;" parent="1" source="I4VxMJiTH_GUWdxZwMfk-2" target="K-tr2CVOvUhRgp2cqFjB-1" edge="1">
          <mxGeometry relative="1" as="geometry">
            <mxPoint x="670" y="1300" as="targetPoint" />
          </mxGeometry>
        </mxCell>
        <mxCell id="I4VxMJiTH_GUWdxZwMfk-2" value="多嵌入特征信息&lt;div&gt;表征块1&lt;/div&gt;" style="rounded=0;whiteSpace=wrap;html=1;" parent="1" vertex="1">
          <mxGeometry x="335" y="1200" width="120" height="60" as="geometry" />
        </mxCell>
        <mxCell id="I4VxMJiTH_GUWdxZwMfk-3" value="多嵌入特征信息&lt;div&gt;表征块2&lt;/div&gt;" style="rounded=0;whiteSpace=wrap;html=1;" parent="1" vertex="1">
          <mxGeometry x="335" y="1260" width="120" height="60" as="geometry" />
        </mxCell>
        <mxCell id="I4VxMJiTH_GUWdxZwMfk-4" value="多嵌入特征信息&lt;div&gt;表征块n&lt;/div&gt;" style="rounded=0;whiteSpace=wrap;html=1;" parent="1" vertex="1">
          <mxGeometry x="335" y="1450" width="120" height="60" as="geometry" />
        </mxCell>
        <mxCell id="I4VxMJiTH_GUWdxZwMfk-5" value="多嵌入特征信息&lt;div&gt;表征块n-1&lt;/div&gt;" style="rounded=0;whiteSpace=wrap;html=1;" parent="1" vertex="1">
          <mxGeometry x="335" y="1390" width="120" height="60" as="geometry" />
        </mxCell>
        <mxCell id="K-tr2CVOvUhRgp2cqFjB-1" value="" style="rounded=0;whiteSpace=wrap;html=1;" vertex="1" parent="1">
          <mxGeometry x="690" y="1034" width="139" height="566" as="geometry" />
        </mxCell>
        <mxCell id="K-tr2CVOvUhRgp2cqFjB-2" value="边缘信息特征图" style="rounded=0;whiteSpace=wrap;html=1;" vertex="1" parent="1">
          <mxGeometry x="699" y="1104" width="120" height="60" as="geometry" />
        </mxCell>
        <mxCell id="K-tr2CVOvUhRgp2cqFjB-3" value="&lt;b&gt;表征提示词&lt;/b&gt;" style="rounded=0;whiteSpace=wrap;html=1;" vertex="1" parent="1">
          <mxGeometry x="699" y="1044" width="120" height="60" as="geometry" />
        </mxCell>
        <mxCell id="K-tr2CVOvUhRgp2cqFjB-4" value="语义控制&lt;span style=&quot;background-color: initial;&quot;&gt;特征图&lt;/span&gt;" style="rounded=0;whiteSpace=wrap;html=1;" vertex="1" parent="1">
          <mxGeometry x="699" y="1284" width="120" height="60" as="geometry" />
        </mxCell>
        <mxCell id="K-tr2CVOvUhRgp2cqFjB-5" value="语义超分辨率&lt;div&gt;特征图&lt;/div&gt;" style="rounded=0;whiteSpace=wrap;html=1;" vertex="1" parent="1">
          <mxGeometry x="699" y="1404" width="120" height="60" as="geometry" />
        </mxCell>
        <mxCell id="K-tr2CVOvUhRgp2cqFjB-6" value="语义特征图" style="rounded=0;whiteSpace=wrap;html=1;" vertex="1" parent="1">
          <mxGeometry x="699" y="1224" width="120" height="60" as="geometry" />
        </mxCell>
        <mxCell id="K-tr2CVOvUhRgp2cqFjB-7" value="&lt;div&gt;个性化风格&lt;/div&gt;&lt;div&gt;特征向量&lt;/div&gt;" style="rounded=0;whiteSpace=wrap;html=1;" vertex="1" parent="1">
          <mxGeometry x="699" y="1464" width="120" height="60" as="geometry" />
        </mxCell>
        <mxCell id="K-tr2CVOvUhRgp2cqFjB-8" value="&lt;div&gt;运动信息特征图&lt;/div&gt;" style="rounded=0;whiteSpace=wrap;html=1;" vertex="1" parent="1">
          <mxGeometry x="699" y="1164" width="120" height="60" as="geometry" />
        </mxCell>
        <mxCell id="K-tr2CVOvUhRgp2cqFjB-9" value="&lt;div&gt;语义内部一致性&lt;/div&gt;&lt;div&gt;特征图&lt;/div&gt;" style="rounded=0;whiteSpace=wrap;html=1;" vertex="1" parent="1">
          <mxGeometry x="699" y="1344" width="120" height="60" as="geometry" />
        </mxCell>
        <mxCell id="K-tr2CVOvUhRgp2cqFjB-10" value="&lt;div&gt;基础控制参数&lt;/div&gt;" style="rounded=0;whiteSpace=wrap;html=1;" vertex="1" parent="1">
          <mxGeometry x="699" y="1524" width="120" height="60" as="geometry" />
        </mxCell>
        <mxCell id="K-tr2CVOvUhRgp2cqFjB-12" value="&lt;span style=&quot;color: rgb(0, 0, 0); font-family: Helvetica; font-size: 12px; font-style: normal; font-variant-ligatures: normal; font-variant-caps: normal; font-weight: 400; letter-spacing: normal; orphans: 2; text-indent: 0px; text-transform: none; widows: 2; word-spacing: 0px; -webkit-text-stroke-width: 0px; white-space: normal; background-color: rgb(251, 251, 251); text-decoration-thickness: initial; text-decoration-style: initial; text-decoration-color: initial; float: none; display: inline !important;&quot;&gt;多嵌入特征信息&lt;/span&gt;&lt;div&gt;&lt;span style=&quot;color: rgb(0, 0, 0); font-family: Helvetica; font-size: 12px; font-style: normal; font-variant-ligatures: normal; font-variant-caps: normal; font-weight: 400; letter-spacing: normal; orphans: 2; text-indent: 0px; text-transform: none; widows: 2; word-spacing: 0px; -webkit-text-stroke-width: 0px; white-space: normal; background-color: rgb(251, 251, 251); text-decoration-thickness: initial; text-decoration-style: initial; text-decoration-color: initial; float: none; display: inline !important;&quot;&gt;表征块&lt;/span&gt;&lt;/div&gt;" style="text;whiteSpace=wrap;html=1;align=center;" vertex="1" parent="1">
          <mxGeometry x="704" y="1614" width="111" height="40" as="geometry" />
        </mxCell>
      </root>
    </mxGraphModel>
  </diagram>
</mxfile>
